<svg viewBox="0 0 512 512" version="1.1" xmlns="http://www.w3.org/2000/svg" xmlns:xlink="http://www.w3.org/1999/xlink" xml:space="preserve" xmlns:serif="http://www.serif.com/" style="fill-rule:evenodd;clip-rule:evenodd;stroke-linejoin:round;stroke-miterlimit:2;">
    <rect width="512" height="512" fill="white"/>
    <g id="Foreground" transform="matrix(1,0,0,1,33.686486,71.691387)">
        <g transform="matrix(200,0,0,200,38.63097,163.166425)">
            <path d="M0.072,-0L0.072,-0.701L0.219,-0.701L0.219,-0.529L0.211,-0.434L0.214,-0.434C0.233,-0.453 0.255,-0.47 0.283,-0.485C0.31,-0.501 0.342,-0.508 0.379,-0.508C0.435,-0.508 0.476,-0.49 0.501,-0.454C0.527,-0.418 0.54,-0.369 0.54,-0.306L0.54,-0L0.393,-0L0.393,-0.287C0.393,-0.32 0.387,-0.345 0.376,-0.36C0.366,-0.375 0.347,-0.383 0.32,-0.383C0.3,-0.383 0.283,-0.378 0.268,-0.37C0.253,-0.361 0.237,-0.348 0.219,-0.331L0.219,-0L0.072,-0Z" style="fill-rule:nonzero;"/>
        </g>
        <g transform="matrix(200,0,0,200,158.629139,163.166425)">
            <path d="M0.116,-0L0.116,-0.496L0.236,-0.496L0.248,-0.388L0.251,-0.388C0.276,-0.428 0.306,-0.459 0.341,-0.478C0.376,-0.498 0.413,-0.508 0.452,-0.508C0.474,-0.508 0.492,-0.506 0.506,-0.503C0.52,-0.499 0.534,-0.494 0.548,-0.488L0.518,-0.365C0.503,-0.37 0.489,-0.373 0.476,-0.376C0.464,-0.378 0.449,-0.379 0.43,-0.379C0.399,-0.379 0.369,-0.37 0.339,-0.352C0.31,-0.334 0.284,-0.303 0.263,-0.258L0.263,-0L0.116,-0Z" style="fill-rule:nonzero;"/>
        </g>
        <g transform="matrix(200,0,0,200,278.627307,163.166425)">
            <path d="M0.076,-0L0.076,-0.701L0.223,-0.701L0.223,-0.296L0.227,-0.296L0.409,-0.496L0.57,-0.496L0.223,-0.125L0.223,-0L0.076,-0ZM0.426,-0L0.282,-0.225L0.366,-0.316L0.585,-0L0.426,-0Z" style="fill-rule:nonzero;"/>
        </g>
        <g transform="matrix(200,0,0,200,38.63097,343.166425)">
            <path d="M0.395,0.012C0.333,0.012 0.286,-0.007 0.254,-0.044C0.222,-0.081 0.206,-0.131 0.206,-0.194L0.206,-0.585L0.051,-0.585L0.051,-0.7L0.353,-0.7L0.353,-0.188C0.353,-0.158 0.361,-0.136 0.378,-0.124C0.394,-0.112 0.413,-0.106 0.433,-0.106C0.445,-0.106 0.457,-0.108 0.469,-0.111C0.481,-0.113 0.495,-0.117 0.511,-0.123L0.543,-0.015C0.518,-0.007 0.495,-0 0.474,0.005C0.452,0.01 0.426,0.012 0.395,0.012Z" style="fill-rule:nonzero;"/>
        </g>
        <g transform="matrix(200,0,0,200,158.629139,343.166425)">
            <path d="M0.388,0.012C0.336,0.012 0.294,0.003 0.263,-0.015C0.231,-0.034 0.209,-0.059 0.195,-0.092C0.181,-0.124 0.174,-0.162 0.174,-0.206L0.174,-0.381L0.05,-0.381L0.05,-0.49L0.181,-0.496L0.2,-0.648L0.321,-0.648L0.321,-0.496L0.531,-0.496L0.531,-0.381L0.321,-0.381L0.321,-0.207C0.321,-0.183 0.325,-0.163 0.332,-0.147C0.34,-0.132 0.351,-0.121 0.366,-0.114C0.382,-0.107 0.401,-0.103 0.425,-0.103C0.444,-0.103 0.462,-0.105 0.478,-0.108C0.494,-0.112 0.509,-0.116 0.524,-0.121L0.55,-0.015C0.528,-0.008 0.504,-0.002 0.478,0.004C0.451,0.009 0.421,0.012 0.388,0.012Z" style="fill-rule:nonzero;"/>
        </g>
        <g transform="matrix(200,0,0,200,278.627307,343.166425)">
            <path d="M0.07,-0L0.07,-0.079L0.329,-0.381L0.101,-0.381L0.101,-0.496L0.533,-0.496L0.533,-0.417L0.273,-0.115L0.54,-0.115L0.54,-0L0.07,-0Z" style="fill-rule:nonzero;"/>
        </g>
    </g>
</svg>